# xmcd
#
# Track frame offsets: 
#        150
#        22796
#        41843
#        59046
#        75926
#        103881
#        115567
#        136363
#        157969
#        175975
#
# Disc length: 2635 seconds
#
# Revision: 0
# Processed by: cddbd v1.5.2PL0 Copyright (c) Steve Scherf et al.
# Submitted via: ExactAudioCopy v1.3
#
DISCID=780a490a
DTITLE=Sven Zetterberg - Mileage
DYEAR=2012
DGENRE=Blues, Rhythm and Blues
TTITLE0=Love Can Go Wrong
TTITLE1=Tall, Dangerous And Drunk
TTITLE2=All My Luck Is Gone
TTITLE3=Kind Of Lonesome
TTITLE4=I'm Gonna Change
TTITLE5=Hillbilly Blues
TTITLE6=Breaking Up Somebody's Home
TTITLE7=Part Time Love
TTITLE8=Rome Wasn't Built In A Day
TTITLE9=Give Me Some Of Yourself
EXTD=
EXTT0=
EXTT1=
EXTT2=
EXTT3=
EXTT4=
EXTT5=
EXTT6=
EXTT7=
EXTT8=
EXTT9=
PLAYORDER=
